<svg xmlns="http://www.w3.org/2000/svg" xml:space="preserve" fill-rule="evenodd" stroke-linejoin="round"
  stroke-miterlimit="2" clip-rule="evenodd" viewBox="0 0 1024 1024">
  <g transform="translate(-236.599 -36.743)scale(1.42685)">
    <circle cx="683.997" cy="116.755" r="3.308" transform="translate(0 1)" />
    <circle cx="790.329" cy="124.315" r="3.253" transform="translate(1 1)" />
    <circle cx="863.96" cy="173.242" r="4.039" transform="translate(1 1)" />
    <circle cx="842.547" cy="342.207" r="4.213" transform="translate(-1 1)" />
    <circle cx="319.464" cy="478.991" r="4.744" />
    <circle cx="484.474" cy="405.964" r="3.968" transform="translate(-1 -1)" />
    <circle cx="271.542" cy="360.509" r="4.053" />
    <circle cx="372.068" cy="314.43" r="2.406" transform="translate(1)" />
    <circle cx="393.964" cy="286.355" r="3.264" transform="translate(1 1)" />
    <circle cx="389.801" cy="248.263" r="5.163" />
    <circle cx="499.983" cy="183.521" r="5.371" />
    <circle cx="580.221" cy="135.62" r="3.898" />
    <circle cx="603.608" cy="161.111" r="4.524" />
    <circle cx="660.31" cy="220.567" r="3.982" />
    <path
      d="M811.24 147.765c6.782 0 12.29-5.506 12.29-12.289 0 6.783 5.506 12.29 12.289 12.29-6.783 0-12.29 5.506-12.29 12.29 0-6.784-5.507-12.29-12.29-12.29M852.511 302.416c8.548 0 15.488-6.94 15.488-15.487 0 8.548 6.94 15.487 15.488 15.487-8.548 0-15.488 6.94-15.488 15.488 0-8.548-6.94-15.488-15.488-15.488M325.8 292.371c12.105 0 21.932-9.826 21.932-21.93 0 12.104 9.826 21.93 21.93 21.93-12.104 0-21.93 9.827-21.93 21.931 0-12.104-9.827-21.93-21.931-21.93M293.945 329.191c6.23 0 11.287-5.057 11.287-11.287 0 6.23 5.058 11.287 11.288 11.287-6.23 0-11.288 5.058-11.288 11.288 0-6.23-5.058-11.288-11.287-11.288M417.762 388.001c12.103 0 21.93-9.826 21.93-21.93 0 12.104 9.827 21.93 21.93 21.93-12.103 0-21.93 9.827-21.93 21.931 0-12.104-9.827-21.93-21.93-21.93M386.994 410.775c6.23 0 11.288-5.057 11.288-11.287 0 6.23 5.058 11.287 11.288 11.287-6.23 0-11.288 5.058-11.288 11.288 0-6.23-5.058-11.288-11.288-11.288M337.686 449.59c11.598 0 21.014-9.415 21.014-21.013 0 11.598 9.416 21.013 21.013 21.013-11.597 0-21.013 9.416-21.013 21.014 0-11.598-9.416-21.014-21.014-21.014M596.164 219.222c6.605 0 11.968-5.363 11.968-11.969 0 6.606 5.363 11.969 11.968 11.969-6.606 0-11.968 5.362-11.968 11.968 0-6.606-5.363-11.969-11.968-11.969M529.492 187.82c15.876 0 28.766-12.89 28.766-28.765 0 15.876 12.888 28.764 28.764 28.764-15.876 0-28.764 12.89-28.764 28.766 0-15.876-12.89-28.766-28.766-28.766M635.442 137.383c13.211 0 23.937-10.725 23.937-23.936 0 13.211 10.725 23.936 23.936 23.936-13.21 0-23.936 10.726-23.936 23.937 0-13.21-10.726-23.937-23.937-23.937" />
  </g>
  <path
    d="m812.563 114.813 13.602 83.132 40.545-20.684-21.31 39.357 114.177 13.204L845.4 243.024l21.31 39.358-40.545-20.685-13.602 83.134-13.602-83.134-40.543 20.685 21.308-39.358-114.175-13.202 114.175-13.204-21.308-39.357 40.543 20.684z" />
  <path
    d="M882.937 362.353c-6.027 5.655-46.823 41.365-89.246 14.646 0 0 41.662-.541 66.79-16.901 0 0-31.452-.397-33.357-7.29 0 0 40.395-7.216 55.327-22.696 0 0-24.455-1.064-28.473-4.453 0 0 20.905-5.355 31.36-11.759 10.456-6.403 22.927-17.177 35.687-20.807 12.762-3.629 24.743-5.408 33.755-4.91 3.324.184 29.004-14.604 42.795 2.09 0 0-8.463-3.595-18.778 8.71-10.315 12.303-35.948 30.751-43.487 128.974 0 0-8.373-27.597-12.501-33.23-4.126-5.633 6.886 88.01-24.008 116.441 0 0 4.6-33.792-1.359-51.596 0 0-5.634 67.113-45.446 99.603 0 0 16.851-39.92 10.404-61.112 0 0-12.396 46.255-43.808 71.393 0 0 7.91-32.489 5.513-42.645 0 0-31.03 36.49-55.434 40.054 0 0 7.455-17.03 7.46-20.793 0 0-12.576-6.06-58.532 29.47 0 0 63.173-70.616 73.572-75.623 0 0-53.845 17.275-81.6 50.482-27.395 32.775-45.105 67.2-50.07 69.262 2.707-.927 33.584-11.724 41.966-24.172 0 0-18.355 43.396-24.023 55.848 0 0 59.29-50.563 68.926-73.825 0 0-10.416 66.71-33.926 100.928-23.51 34.217-39.065 58.768-84.172 77.656 0 0 46.217-46.187 53.779-81.978 0 0-23.038 27.587-29.5 33.463-6.344 5.767-76.265 72.632-79.687 78.43 1.226-2.635 11.28-24.465 9.66-27.36-8.033 14.204-84.632 74.94-128.61 84.971 0 0 82.37-55.229 95.113-82.816-40.898 40.352-230.73 161.597-394.491 147.203 0 0 189.481 7.178 354.068-156.391C229.697 946.467 5.691 915.438.162 794.26c-6.148-134.772 163.972-300.979 366.942-400.213l4.487 8.933C26.557 580.773-162.865 945.43 258.336 853.348-112.596 887.156 66.103 583.18 380.47 416.451l13.018 12.628C174.359 552.732 45.643 738.885 182.408 821.194c0 0-69.09-9.88-82.157-76.02.396 30.912 14.252 121.374 174.788 94.762 0 0-49.19.884-63.633-19.98 0 0 59.163 16.644 113.454-6.528.451-.124.647-.211.565-.243l-.565.243c-9.331 2.585-128.015 21.776-156.722-81.496 0 0 52.876 56.654 173.334 46.227 0 0-41.193-5.382-60.594-28.824 0 0 153.378 60.364 300.825-67.023-24.62 14.004-99.444 58.588-133.772-4.32 51.16 27.232 133.554-21.164 147.609-33.31 11.236-9.713 24.46-16.444 28.099-18.037 0 0-66.895 10.557-95.939 38.11 0 0 25.368-39.519 79.932-59.378 54.563-19.857 65.8-36.326 68.37-39.346 0 0-64.572 37.098-97.91 7.48 41.514 4.61 107.811-24.404 133.555-49.129 0 0-61.792 24.026-83.87 19.64 0 0 20.429-24.293 22.876-30.403 0 0-42.103 37.58-91.883 20.753 0 0 41.398-20.212 47.083-30.81 0 0-72.494 36.008-125.286-1.1 0 0 49 1.023 79.21-21.945 0 0-98.541 35.983-143.48-29.51 0 0 72.698 13.255 113.774-8.275 0 0-134.266 22.126-156.126-74.293 0 0 32.092 24.252 83.177 32.905a215 215 0 0 0 21.54 2.542s-5.348-1.512-13.7-4.747c-30.853-11.946-102.707-47.381-97.434-116.823 0 0 42.864 67.066 101.668 77.69 0 0-60.444-28.89-63.72-91.7 0 0 104.02 103.008 220.25 108.845 32.803 1.648 62.699-14.424 86.835-6.976 24.137 7.45 19.825 55.615 70.66 54.854 37.757-.565 66.336-29.647 66.336-29.647s-16.106 44.655-34.756 54.678c0 0 19.3-.936 48.454-42.614 0 0-.001 35.661-9.277 49.66 0 0 40.066-24.77 45.388-58.964 0 0-24.445 18.639-29.429 28.435 0 0 1.858-14.532 4.326-21.889 2.389-7.116 1.453-34.447 8.674-42.335.502-.47.763-.733.763-.733a8 8 0 0 0-.763.733m-131.106 91.59.1-.017c.011-.066-.023-.057-.1.017m0 0c-45.09 7.8-61.96-.68-61.96-.68 9.041-1.206 30.8-15.612 30.8-15.612-24.219 10.513-61.375-.268-61.375-.268 11.059-5.58 22.047-12.043 32.941-19.67-9.657 2.96-18.573 4.655-26.686 5.456-34.917 3.444-54.927-9.667-54.927-9.667 13.692-.754 45.545-16.926 45.545-16.926-58.308 5.674-116.679-23.426-116.679-23.426 3.778 17.845 45.382 33.8 45.382 33.8-40.605 6.435-81.624-12.562-81.624-12.562 38.38 54.237 114.712 37.426 114.712 37.426-28.365 18.623-73.352 18.064-73.352 18.064 22.432 29.627 107.234.167 107.234.167-14.312 17.466-57.89 30.891-57.89 30.891 22.676 12.65 84.218-10.443 84.218-10.443-4.065 6.752-33.83 26.243-33.83 26.243 39.196 4.048 68.033-21.436 68.033-21.436-10.306 19.068-33.435 39.177-33.435 39.177 63.785-8.712 111.004-45.245 114.276-49.573-33.296 16.492-70.057 16.941-70.057 16.941 16.346-10.276 27.5-26.77 28.674-27.902M910.788 313.27l17.376.197 15.16-13.431s-16.75-1.757-32.536 13.234M727.118 682.23c-2.498 13.326-30.807 52.889-37.326 55.996 0 0 20.962-9.111 30.047-22.67 9.253-13.811 7.28-33.326 7.28-33.326" />
  <path
    d="M425.886 720.887s18.22 12.43 68.062 3.717c0 0-118 67.856-165.397-6.841 0 0 33.5 22.686 97.335 3.124M805.161 572.88s.163 10.108.592 15.098c.498 5.804 5.98 37.945-32.562 60.328 0 0 12.6-25.667 10.626-38.616 0 0-21.162 16.252-25.894 34.279-2.082 7.929-11.72 14.866-11.72 14.866s9.9-35.229 9.158-39.693c0 0 39.443-25.562 49.8-46.262M514.546 336.232c85.544-25.24 170.92-35.58 246.498-24.413-68.02 5.667-135.752 20.785-200.254 42.561z" />
</svg>
